<?xml version="1.0" encoding="UTF-8" standalone="no"?>
<svg xmlns="http://www.w3.org/2000/svg" version="1.1" x="0" y="0" width="484" height="140" viewBox="0 0 242 70">
  <g transform="translate(5,5)">
    <path fill="none" stroke="#008700" stroke-width="9" stroke-linecap="round" stroke-linejoin="round" d="M 0,0 20,0 0,20 0,40 40,0 60,0 0,60 20,60 60,20 60,40 40,60 60,60"/>
    <g>
      <path d="m87.142578 5.9746094v38.276368c-0.000017 1.286792 0.05451 2.050137 0.163574 2.290039 0.152652 0.436205 0.490705 0.752448 1.01416 0.94873 0.32713 0.130866 1.21043 0.196295 2.649903 0.196289h1.145019v6.313965h-20.250488v-6.313965h1.243164c1.308589 0.000006 2.14827-0.08178 2.519043-0.245361 0.370762-0.163568 0.643386-0.425286 0.817871-0.785156 0.174473-0.359856 0.261712-1.161369 0.261719-2.404541v-29.181641h-4.841797v-6.3466797c3.903966-0.261673 7.938792-1.1776877 12.104492-2.7480466z"/>
      <path d="m105.33203 5.9746094c1.65754 0.000048 3.06973 0.5834621 4.23657 1.7502441 1.16681 1.1668746 1.75023 2.5790635 1.75025 4.2365725-0.00002 1.679402-0.58344 3.102496-1.75025 4.269287-1.16684 1.166866-2.57903 1.75028-4.23657 1.750244-1.65756 0.000036-3.06975-0.583378-4.23657-1.750244-1.166838-1.166791-1.750252-2.57898-1.750245-4.236572-0.000007-1.635699 0.599765-3.0478883 1.799315-4.2365726 1.19954-1.1885919 2.59537-1.782911 4.1875-1.782959zm5.29981 14.590821v24.176269c-0.00002 1.155933 0.0654 1.864754 0.19629 2.126465 0.13084 0.261726 0.36529 0.463467 0.70336 0.605225 0.33804 0.14177 1.09593 0.212652 2.27369 0.212646h1.7666v6.313965h-20.217776v-6.313965h1.733887c1.134109 0.000006 1.859287-0.05997 2.175537-0.179931 0.316236-0.119948 0.550693-0.32169 0.703369-0.605225 0.152663-0.283521 0.228993-0.850578 0.229003-1.701172v-15.60498h-4.841796v-6.150391c1.722977-0.08721 3.375075-0.272593 4.956296-0.556152 1.58121-0.283498 2.9934-0.621551 4.23658-1.014161 0.80695-0.261686 1.7993-0.697883 2.97705-1.308593z"/>
      <path d="m132.02734 5.9746094v17.633301c1.81021-1.134083 3.41869-1.924691 4.82544-2.371826 1.40672-0.44707 2.81891-0.670621 4.23658-0.670654 3.70765 0.000033 6.77194 1.352245 9.19287 4.05664 2.81344 3.140652 4.22017 7.328147 4.22021 12.5625-0.00004 5.299817-1.41223 9.558194-4.23657 12.775147-2.82441 3.21696-6.24311 4.825438-10.2561 4.825439-1.63577-0.000001-3.20608-0.272624-4.71094-0.817871-1.5049-0.545247-3.07521-1.450356-4.71094-2.715332l-1.7666 2.748047h-7.19727v-38.930664h-4.77636v-6.3466797c4.29654-0.305293 8.28775-1.2213077 11.97363-2.7480469zm0 24.732422v9.945313c-0.00001 2.006522 0.15811 3.385996 0.47437 4.138427 0.31623 0.75245 0.87238 1.379484 1.66846 1.881104 0.79604 0.501634 1.72841 0.752448 2.79712 0.752441 1.81019 0.000007 3.24965-0.741529 4.31835-2.224609 1.35219-1.85383 2.0283-4.416491 2.02832-7.687988-0.00002-3.075176-0.57798-5.452452-1.73388-7.131836-0.93785-1.352189-2.17011-2.028295-3.69678-2.028321-0.85061 0.000026-1.76117 0.196315-2.73169 0.588868-0.97056 0.392602-2.01198 0.981469-3.12427 1.766601z"/>
      <path d="m179.30029 34.20752v-2.420899c-0.00002-1.439429-0.11997-2.431779-0.35986-2.977051-0.23993-0.545221-0.67613-0.997776-1.30859-1.357666-0.63251-0.359836-1.41767-0.539768-2.35547-0.539795-0.71975 0.000027-1.37404 0.119982-1.96289 0.359864-0.58889 0.239935-1.0578 0.545273-1.40674 0.916015-0.34897 0.370794-0.75246 1.09052-1.21045 2.15918-0.58888 1.352236-1.29225 2.322775-2.11011 2.911621-0.81788 0.588887-1.78297 0.883321-2.89526 0.883301-1.39584 0.00002-2.54086-0.436178-3.43506-1.308594-0.89421-0.872374-1.34131-1.951962-1.34131-3.238769 0-1.461238 0.458-2.758925 1.37402-3.893067 1.22135-1.504853 3.04248-2.737111 5.46338-3.696777 2.42089-0.959603 5.14712-1.43942 8.17871-1.439453 3.03156 0.000033 5.61058 0.490755 7.73706 1.472168 2.12644 0.981476 3.60951 2.153757 4.44922 3.516845 0.83965 1.363146 1.25949 3.440536 1.25952 6.232178v11.711914c-0.00003 1.439462 0.0763 2.36093 0.22901 2.764404 0.15264 0.403491 0.47978 0.757901 0.98144 1.063233 0.5016 0.305345 1.05775 0.458014 1.66846 0.458008 0.61064 0.000006 1.42851-0.174473 2.45361-0.523438v6.379395c-1.85387 0.588867-3.63138 0.8833-5.33252 0.8833-2.00654 0-3.71861-0.327148-5.13623-0.981445-1.41766-0.654296-2.6063-1.63574-3.56591-2.944336-2.18101 1.417645-4.16026 2.426352-5.93775 3.026123-1.77752 0.599772-3.49505 0.899658-5.15259 0.899658-3.11882 0-5.63786-0.877847-7.55712-2.633544-1.91928-1.755693-2.87891-3.920323-2.87891-6.493897 0-1.461253 0.3326-2.80256 0.9978-4.023926 0.6652-1.22134 1.65755-2.290024 2.97705-3.206054 1.31949-0.915999 3.35872-1.728417 6.11768-2.437256 2.75894-0.708803 6.1122-1.215882 10.05981-1.52124zm0 5.430664c-2.85711 0.414402-4.87453 0.834242-6.05224 1.259521-1.17775 0.425306-2.01743 0.959648-2.51905 1.603027-0.50164 0.643403-0.75245 1.303152-0.75244 1.979248-0.00001 0.872405 0.32714 1.603036 0.98145 2.191895 0.65428 0.588874 1.53758 0.883307 2.6499 0.883301 0.71971 0.000006 1.55394-0.185378 2.50269-0.556153 0.94871-0.37076 2.01194-0.916007 3.18969-1.635742z"/>
      <path d="m218.65625 21.350586h17.37158v6.313965c-1.4613 0.02184-2.31188 0.06546-2.55176 0.130859-0.3708 0.109076-0.75793 0.370794-1.16137 0.785156-0.40352 0.414413-0.81246 1.057805-1.22681 1.930176l-10.69775 23.489258h-8.76758l-11.15576-24.208984c-0.26173-0.545223-0.59978-1.014135-1.01416-1.406739-0.32715-0.305312-0.68702-0.501601-1.07959-0.588867-0.26172-0.08721-1.05778-0.130833-2.38819-0.130859v-6.313965h20.0542v6.313965h-1.04687c-1.2868 0.000026-2.08286 0.09817-2.38819 0.294433-0.4144 0.261745-0.62159 0.599798-0.62158 1.014161-0.00001 0.327173 0.14175 0.839705 0.42529 1.537597l5.07081 12.726074 5.26709-12.726074c0.30531-0.719702 0.45798-1.254044 0.458-1.603027-0.00002-0.436173-0.22903-0.763321-0.68701-0.981445-0.34898-0.174453-1.12323-0.261693-2.32275-0.261719h-1.5376z"/>
    </g>
  </g>
</svg>